<svg xmlns="http://www.w3.org/2000/svg" width="390.000000pt" height="390.000000pt" viewBox="0 0 390.000000 390.000000">

  <g transform="translate(0.000000,390.000000) scale(0.100000,-0.100000)" fill="#222" stroke="none">
    <path d="M0 1950 l0 -1950 1950 0 1950 0 0 1950 0 1950 -1950 0 -1950 0 0
-1950z m2185 1534 c572 -90 1044 -493 1226 -1047 254 -772 -122 -1608 -866
-1924 -571 -242 -1243 -121 -1686 305 -207 199 -345 425 -422 692 -82 283 -79
631 8 910 37 120 141 329 216 435 82 115 249 282 364 364 105 74 315 178 431
215 226 70 485 87 729 50z" />
    <path d="M1803 3300 c-696 -79 -1224 -659 -1226 -1345 -1 -279 73 -523 227
-754 215 -322 555 -538 941 -597 120 -19 332 -14 445 10 789 170 1266 951
1045 1711 -124 426 -464 774 -895 915 -164 54 -382 78 -537 60z m157 -309 l0
-98 -92 -6 c-396 -23 -742 -312 -850 -709 -20 -71 -23 -106 -22 -238 0 -138 3
-164 27 -243 118 -387 427 -644 827 -689 l110 -12 0 -99 0 -100 -92 7 c-602
46 -1049 496 -1075 1081 -12 265 47 487 182 695 63 96 229 262 325 325 178
116 385 180 588 184 l72 1 0 -99z m355 85 c95 -40 99 -192 6 -241 -92 -47
-201 17 -201 120 0 101 98 161 195 121z m380 -210 c95 -40 99 -192 6 -241 -91
-47 -201 17 -201 118 0 104 96 164 195 123z m-711 -198 c11 -16 16 -46 16
-105 0 -46 3 -83 6 -83 4 0 28 13 53 29 67 41 88 45 116 27 39 -26 35 -79 -7
-104 -18 -10 -63 -36 -100 -58 l-68 -39 0 -142 c0 -158 -5 -151 68 -108 19 11
67 40 108 63 l74 44 0 111 c0 123 10 147 60 147 41 0 54 -24 60 -111 l5 -77
65 39 c96 58 150 51 150 -17 0 -37 -18 -53 -109 -99 l-54 -27 34 -20 c106 -64
109 -67 109 -101 0 -73 -48 -75 -163 -7 -47 28 -90 50 -96 50 -7 0 -44 -19
-84 -42 -40 -22 -94 -53 -121 -68 l-48 -28 48 -27 c27 -15 78 -45 114 -66 36
-21 72 -41 80 -44 9 -3 46 13 84 36 101 61 127 70 157 56 19 -10 24 -20 24
-52 0 -38 -2 -41 -62 -75 -35 -19 -63 -38 -63 -42 0 -3 26 -21 58 -38 31 -18
65 -39 75 -48 20 -17 23 -72 5 -90 -18 -18 -66 -15 -96 7 -15 10 -46 28 -69
40 l-43 21 0 -75 c0 -62 -4 -79 -20 -95 -24 -24 -48 -25 -78 -4 -21 14 -22 22
-22 135 0 65 -4 119 -8 119 -5 0 -58 29 -118 65 -60 36 -112 65 -116 65 -5 0
-8 -64 -8 -142 l1 -143 97 -55 97 -55 0 -40 c0 -34 -4 -41 -28 -49 -23 -8 -39
-5 -92 22 -36 18 -68 32 -70 32 -3 0 -5 -35 -5 -79 0 -64 -4 -83 -21 -105 -24
-31 -52 -33 -79 -6 -17 17 -20 33 -20 105 0 47 -4 85 -8 85 -5 0 -33 -13 -63
-30 -68 -38 -103 -39 -126 -4 -15 23 -15 29 -2 52 8 14 28 33 44 42 17 10 57
33 90 52 l60 34 3 143 c2 132 1 143 -14 137 -33 -13 -229 -128 -236 -139 -4
-6 -4 -57 -1 -113 5 -94 4 -103 -16 -123 -25 -25 -48 -27 -79 -5 -20 13 -22
24 -22 95 0 43 -3 79 -6 79 -3 0 -36 -18 -73 -40 -37 -22 -78 -40 -91 -40 -49
0 -79 60 -46 93 8 8 44 32 80 53 36 21 66 41 66 44 0 3 -26 19 -58 36 -69 37
-92 70 -74 108 19 42 67 35 168 -24 47 -27 87 -50 90 -50 3 0 62 32 131 71
l125 72 -59 31 c-32 18 -90 50 -129 73 -63 36 -73 39 -90 26 -55 -41 -168 -94
-192 -91 -34 4 -62 50 -46 75 9 16 55 50 120 89 15 9 7 17 -56 55 -86 52 -98
67 -84 106 8 23 16 29 47 31 29 3 52 -6 104 -37 l68 -41 3 77 c3 87 18 113 63
113 49 0 62 -34 58 -153 l-4 -102 120 -72 c66 -40 123 -72 128 -73 4 0 7 64 7
143 l0 142 -95 53 c-106 59 -123 79 -105 122 19 45 52 46 125 5 35 -19 66 -35
69 -35 3 0 6 39 6 87 0 66 4 91 17 105 23 25 68 23 87 -4z m971 -182 c95 -40
99 -192 6 -241 -92 -47 -201 17 -201 120 0 101 98 161 195 121z m100 -440 c95
-40 99 -192 6 -241 -92 -47 -201 17 -201 120 0 101 98 161 195 121z m-120
-440 c95 -40 99 -192 6 -241 -92 -47 -201 17 -201 120 0 101 98 161 195 121z
m-280 -320 c95 -40 99 -192 6 -241 -92 -47 -201 17 -201 120 0 101 98 161 195
121z m-360 -240 c95 -40 99 -192 6 -241 -92 -47 -201 17 -201 120 0 101 98
161 195 121z" />
  </g>
</svg>